PathFileType	4	(X/Y/Z)	C:/Users/beibeiliu/ov580/test_trc/User1\sequence.23_training_dense_left.trc
DataRate	CameraRate	NumFrames	NumMarkers	Units	OrigDataRate	OrigDataStartFrame	OrigNumFrames
120	120	24	19	mm	120	1	240
Frame#	Time	ThumbCMC			ThumbMCP			ThumbIP			ThumbTip			IndexMCP			IndexPIP			IndexTip			MiddleMCP			MiddlePIP			MiddleTip			RingMCP			RingPIP			RingTip			PinkyMCP			PinkyPIP			PinkyTip			BackHand1			BackHand2			BackHand3	
		X0	Y0	Z0	X1	Y1	Z1	X2	Y2	Z2	X3	Y3	Z3	X4	Y4	Z4	X5	Y5	Z5	X6	Y6	Z6	X7	Y7	Z7	X8	Y8	Z8	X9	Y9	Z9	X10	Y10	Z10	X11	Y11	Z11	X12	Y12	Z12	X13	Y13	Z13	X14	Y14	Z14	X15	Y15	Z15	X16	Y16	Z16	X17	Y17	Z17	X18	Y18	Z18	
0	0	-146.347	13.0489	52.491	-124.619	-0.976109	43.1042	-100.187	-6.25751	30.7087	-79.3227	-12.1931	22.879	-153.627	5.60968	-35.9215	-148.584	1.22903	-60.3148	-146.386	-1.17792	-91.2431	-177.639	12.4981	-48.6433	-176.829	9.04679	-76.3588	-178.662	4.3474	-106.241	-201.282	12.4784	-45.7665	-202.557	10.9477	-68.9796	-205.458	5.09494	-94.5799	-234.627	9.1437	-25.1846	-241.449	8.02729	-40.2979	-246.168	12.5143	-65.8993	-203.344	29.7224	6.15814	-207.729	41.8624	42.6553	-171.816	31.6769	26.311	
1	0.00833333	-148.433	12.503	49.1354	-124.328	0.173548	41.1821	-105.136	-7.47504	26.9585	-80.8888	-12.5714	22.2462	-155.075	6.574	-38.4176	-150.972	3.16908	-65.7135	-149.987	-0.306058	-93.5261	-177.909	12.77	-52.1937	-177.275	9.54042	-74.8608	-180.262	4.748	-107.382	-206.544	14.9657	-45.1836	-202.579	11.0979	-70.4773	-205.564	5.58988	-100.835	-232.068	9.67208	-22.9562	-244.245	9.36665	-45.9071	-248.792	15.4814	-64.4524	-207.081	30.4984	8.67403	-207.112	42.8943	38.9114	-171.89	30.9221	23.9095	
2	0.0166667	-149.885	11.6862	50.7125	-127.798	-0.751357	42.498	-101.225	-8.08924	25.8711	-85.8787	-13.1143	24.0276	-150.618	4.79599	-41.4957	-152.295	2.59212	-63.8924	-147.488	-0.888537	-89.325	-181.102	13.8788	-49.3823	-178.367	9.12436	-76.4522	-178.1	4.33028	-105.818	-202.397	13.8744	-43.1989	-203.754	9.91137	-75.2042	-207.428	5.08583	-100.08	-234.391	10.6693	-24.4633	-244.355	8.9513	-43.9844	-248.398	13.0409	-65.5839	-208.177	30.9073	7.64654	-207.5	40.6838	38.8137	-174.523	30.9808	26.2274	
3	0.025	-146.136	10.7749	46.4893	-127.576	-2.13755	39.061	-104.17	-8.78421	26.4745	-86.4758	-13.3581	25.9096	-153.925	5.09053	-41.5959	-148.129	2.45877	-67.0527	-153.448	-0.221209	-89.4268	-179.247	13.7483	-48.0956	-178.816	9.71822	-79.0248	-181.072	5.08336	-107.303	-202.359	13.8418	-46.2389	-205.058	10.7186	-74.2502	-205.647	5.90356	-95.3568	-230.216	9.74258	-24.4353	-240.092	9.96994	-45.3678	-248.231	16.08	-65.6018	-206.652	29.1124	4.96078	-211.127	41.5195	36.9385	-172.861	30.2928	23.1752	
4	0.0333333	-151.344	10.7809	48.9104	-125.776	-2.29316	37.9124	-102.756	-8.26262	28.9849	-83.4488	-13.145	25.8373	-151.717	5.69026	-38.0533	-150.439	3.45908	-62.5141	-148.839	0.150177	-88.7089	-176.876	14.0731	-53.7058	-176.487	8.53924	-81.2055	-178.968	5.09806	-105.777	-207.559	13.9371	-45.6639	-203.985	10.7915	-75.7104	-207.964	5.20551	-100.029	-236.502	10.0637	-25.693	-239.162	8.89673	-44.399	-248.867	15.854	-65.8932	-207.38	30.9716	5.20916	-205.451	40.7757	36.2324	-174.032	29.4194	23.0465	
5	0.0416667	-150.272	9.79935	45.1879	-127.407	-2.37959	38.2347	-103.616	-9.54032	24.1548	-82.9976	-14.4371	24.1886	-151.781	5.08607	-36.5462	-153.37	2.96097	-66.8866	-150.111	-0.700752	-88.9216	-181.965	13.3864	-52.647	-178.096	9.26211	-78.2636	-182.891	4.94578	-106.873	-208.767	13.7499	-45.4765	-207.897	10.596	-75.253	-210.246	5.42545	-96.7427	-234.744	10.3603	-25.5682	-239.756	8.5478	-42.138	-250.239	12.9983	-64.93	-205.143	30.1194	9.41889	-208.7	40.2394	38.4274	-171.553	28.5391	25.0391	
6	0.05	-148.566	10.5004	46.2428	-125.301	-2.05912	38.7912	-107.353	-10.9828	27.6222	-86.5608	-15.7985	22.6228	-155.776	5.81122	-41.8508	-150.944	2.40354	-62.292	-152.815	-0.55995	-89.513	-183.427	13.6211	-53.0754	-178.655	9.28198	-75.7632	-181.03	5.60857	-108.387	-204.768	13.426	-42.8442	-207.271	10.5542	-72.1382	-206.718	5.31305	-100.34	-237.769	10.2385	-24.9785	-244.736	8.85631	-46.4559	-251.082	13.9208	-66.3417	-205.317	28.0894	10.3893	-210.952	41.0415	40.1004	-175.177	31.1859	25.8094	
7	0.0583333	-150.579	12.1159	50.5149	-128.012	-1.77499	41.1808	-103.133	-8.74633	25.8089	-84.918	-14.2559	24.7521	-155.082	6.99283	-40.8032	-150.197	2.5396	-67.2965	-153.954	0.373416	-90.1005	-181.898	14.1927	-52.8847	-179.837	10.1062	-77.0732	-177.688	4.75707	-111.119	-204.812	14.4253	-44.5712	-209.851	11.5058	-73.1655	-209.689	5.76185	-97.2044	-238.424	11.6512	-28.0187	-242.999	9.66247	-43.7349	-251.852	14.5633	-69.607	-211.093	30.309	9.3968	-211.388	41.0622	38.0589	-172.693	31.8345	25.011	
8	0.0666667	-150.992	10.6451	47.6355	-128.289	-2.59777	37.98	-108.091	-9.83444	25.0443	-84.7534	-14.8478	19.9117	-155.387	7.49092	-38.837	-151.429	3.75337	-68.479	-148.466	-0.877925	-94.2623	-181.471	15.4175	-49.872	-182.03	11.0805	-81.1634	-180.25	5.78842	-108.928	-206.812	15.7242	-46.7911	-209.159	12.7569	-73.1993	-206.359	5.60818	-100.194	-237.842	12.3876	-23.8803	-242.945	10.8293	-43.1147	-252.209	16.4706	-67.4866	-208.768	29.4322	7.84858	-212.921	41.0877	40.8737	-175.601	30.2744	26.0161	
9	0.075	-153.736	10.9354	48.7225	-125.432	-1.89004	40.465	-105.225	-8.28182	29.223	-88.8504	-16.6334	21.8247	-154.057	7.05222	-40.0642	-154.084	4.73558	-64.1403	-151.931	1.07957	-91.8952	-179.701	15.509	-52.327	-177.721	11.1761	-78.7759	-179.405	5.39602	-107.54	-203.452	15.6009	-48.084	-209.816	13.8023	-71.8664	-208.054	6.01941	-98.5879	-233.389	12.1726	-24.6082	-245.2	11.5995	-45.5046	-250.689	16.4757	-67.2699	-211.428	31.0294	7.96599	-212.169	41.277	36.8138	-174.792	30.7957	26.9139	
10	0.0833333	-151.235	11.4117	47.0379	-128.069	-1.80189	39.7193	-105.995	-9.40368	26.5036	-85.3532	-15.1697	21.8298	-156.226	7.65254	-41.665	-151.119	4.27349	-65.1323	-152.115	0.739286	-94.5313	-180.732	15.9831	-54.3973	-178.662	10.8228	-78.166	-182.993	5.65116	-107.984	-209.955	16.4146	-46.854	-209.141	13.7049	-72.5793	-207.098	7.09568	-100.288	-233.697	12.6891	-25.531	-244.222	13.0472	-45.4817	-250.586	17.7236	-66.6087	-211.195	31.6559	8.13056	-211.702	40.2315	36.0404	-176.482	32.2727	25.2761	
11	0.0916667	-155.372	10.0993	49.4557	-126.579	-1.7062	42.6243	-105.431	-8.7747	28.5245	-89.3128	-16.1524	21.1781	-154.225	7.82816	-41.4919	-150.463	4.32517	-67.222	-152.297	0.980462	-90.4752	-180.736	16.1053	-51.1842	-180.479	11.4144	-80.2413	-180.936	4.76712	-111.243	-208.177	16.5591	-44.6721	-205.536	12.763	-71.6862	-208.805	7.574	-96.7456	-233.72	13.5266	-30.6529	-241.562	12.7356	-43.7708	-253.042	20.3889	-66.5227	-210.17	32.9575	6.42893	-213.843	41.9805	38.0282	-173.785	29.3311	24.9191	
12	0.1	-154.695	10.6556	45.7141	-131.453	-3.80025	39.0411	-105.641	-9.74743	28.8452	-87.0851	-14.9926	23.5019	-153.19	8.29794	-41.9688	-148.6	4.75485	-65.3966	-150.914	1.28079	-88.7185	-178.794	15.669	-52.602	-179.905	10.4515	-81.1565	-182.141	4.78216	-107.096	-209.258	17.6431	-46.1493	-203.96	12.6847	-74.574	-207.388	6.74786	-98.1663	-236.366	14.0133	-24.9089	-243.302	13.797	-42.1303	-251.575	22.6149	-67.3	-206.449	30.0348	6.43685	-211.912	40.8477	41.366	-176.436	30.0688	27.6891	
13	0.108333	-154.148	9.61111	50.6623	-127.195	-2.91266	40.3963	-105.235	-9.27375	26.6048	-86.7499	-16.3519	21.5519	-157.196	10.28	-38.7661	-151.442	7.11985	-62.947	-150.595	1.70249	-92.6661	-179.971	17.0143	-54.3041	-177.907	10.1236	-80.3518	-179.573	3.03083	-106.243	-205.947	17.7265	-47.909	-205.805	13.8153	-71.0743	-206.004	6.83479	-96.5332	-233.971	15.8069	-29.8951	-245.417	15.6484	-47.0552	-249.735	23.704	-67.3716	-207.365	30.5841	6.86374	-211.217	42.227	39.2357	-176.02	33.0712	29.9659	
14	0.116667	-152.295	10.6127	50.6719	-129.742	-2.69402	42.9261	-106.638	-9.83882	28.799	-89.6412	-16.6387	20.961	-156.111	11.5018	-41.3194	-152.207	7.92684	-64.7962	-150.618	1.33168	-92.0019	-178.565	17.5885	-50.5574	-176.667	10.5401	-78.6861	-180.691	1.05885	-111.422	-205.048	18.6867	-46.833	-205.283	14.5741	-73.5949	-204.705	6.54295	-95.9679	-237.616	17.1918	-28.5069	-243.682	17.7203	-42.3464	-251.937	27.2719	-67.7918	-210.963	33.7881	9.47654	-210.991	39.6932	39.6071	-176.922	32.6454	27.7465	
15	0.125	-152.536	9.82701	50.3648	-129.211	-3.15509	39.4965	-104.434	-8.71667	24.5688	-88.8532	-16.8454	22.7111	-153.285	12.5768	-39.21	-147.502	8.64411	-64.6846	-150.86	3.11841	-95.2573	-180.866	19.8013	-50.1341	-174.924	10.9237	-81.5607	-178.271	2.00031	-107.915	-205.932	20.4759	-45.4929	-203.577	15.0708	-71.9642	-206.057	7.49822	-97.4368	-237.285	18.3094	-27.1629	-241.62	18.7353	-44.4619	-248.104	28.2628	-67.4213	-207.932	32.5926	7.33451	-211.191	40.713	40.6409	-173.808	33.901	25.9495	
16	0.133333	-152.313	10.9514	51.8587	-126.154	-2.19968	38.1291	-106.927	-8.57074	26.053	-85.8772	-14.7709	18.5164	-153.758	14.3091	-37.639	-150.205	9.41909	-67.8907	-149.573	4.27393	-92.4911	-181.76	20.8258	-49.2047	-178.603	13.3248	-80.3464	-179.281	2.31189	-107.738	-202.135	20.2219	-47.1023	-204.917	16.8528	-75.2062	-205.067	8.56902	-102.048	-235.428	18.9162	-29.204	-241.501	20.1775	-44.2228	-247.721	28.5499	-65.7227	-208.716	34.8293	11.4064	-209.709	42.4382	39.0683	-175.512	34.8038	25.4611	
17	0.141667	-150.509	11.1455	50.4006	-130.049	-2.50796	41.4273	-107.685	-8.70385	27.2664	-86.4141	-14.6909	20.9497	-150.409	14.5144	-36.7837	-149.607	9.89927	-67.81	-148.785	3.57458	-91.7054	-179.208	20.9809	-53.7872	-175.577	12.7274	-79.0999	-179.404	-0.246097	-111.489	-204.773	22.0792	-48.1773	-204.708	17.9932	-72.9293	-200.307	6.96198	-99.5245	-232.476	20.1935	-27.0813	-243.126	22.1125	-46.426	-247.005	29.4609	-64.0329	-206.227	35.5076	8.84023	-212.244	42.3704	38.6919	-177.383	35.1532	27.3827	
18	0.15	-149.527	11.2744	49.2262	-131.138	-2.30779	40.4816	-104.504	-8.96589	23.9101	-89.7144	-15.6235	16.7124	-151.927	14.6013	-36.776	-147.441	10.409	-65.6335	-150.58	2.75957	-92.6375	-178.271	22.2486	-50.6146	-178.516	12.2085	-82.8251	-180.208	0.792315	-106.068	-204.346	23.1404	-45.7935	-205.869	17.8281	-75.3633	-203.191	7.41559	-101.911	-233.381	20.5265	-26.5717	-240.45	22.8951	-47.5086	-244.69	31.1797	-64.7837	-205.692	35.1842	11.3108	-212.375	43.7738	42.2822	-178.457	33.502	28.9209	
19	0.158333	-152.114	10.1502	49.4316	-126.918	-2.59205	40.9063	-106.906	-9.2684	24.7312	-87.5491	-16.7136	17.7808	-152.519	17.3521	-41.8792	-148.554	11.7287	-64.0498	-150.297	0.481501	-92.4494	-178.365	23.1675	-53.9569	-173.7	12.5386	-79.8092	-179.213	-1.02012	-106.241	-205.668	23.3764	-49.8482	-203.435	17.6408	-72.6671	-202.568	6.65655	-100.659	-234.247	21.9065	-24.679	-241.926	23.831	-43.0356	-248.6	32.0501	-64.0919	-205.69	37.9787	8.98598	-211.371	40.3357	44.928	-172.722	33.9392	31.2763	
20	0.166667	-153.902	10.6034	50.7694	-126.123	-2.95092	36.9918	-105.099	-9.62203	21.0949	-86.5238	-18.7649	13.2073	-152.526	19.6131	-37.5802	-149.762	12.229	-69.1165	-150.865	-1.82241	-94.7867	-180.236	25.3782	-51.2209	-173.202	14.3232	-79.2823	-177.778	-3.35011	-107.536	-204.759	25.1142	-47.16	-204.227	18.142	-78.3972	-201.155	5.99937	-98.9502	-233.26	23.449	-26.4522	-241.458	25.1772	-44.5148	-245.265	34.9156	-65.5839	-206.369	36.9914	10.1007	-210.508	41.345	41.1739	-175.926	36.4709	27.2074	
21	0.175	-150.594	10.5903	47.3538	-130.762	-5.49811	38.6969	-107.379	-12.6399	20.9061	-93.4681	-23.142	12.1946	-150.827	19.704	-40.1881	-146.243	11.7702	-66.7814	-149.107	-4.04839	-90.552	-174.147	25.3243	-54.1244	-174.874	12.1744	-81.8844	-176.494	-6.57074	-104.656	-202.777	25.7704	-46.4308	-200.955	16.8284	-77.6842	-201.805	3.36835	-98.6837	-231.541	24.8072	-30.0667	-239.491	27.499	-48.6739	-245.784	35.803	-64.99	-205.424	38.0853	9.39269	-212.262	41.3209	44.5365	-175.36	35.9492	29.7985	
22	0.183333	-151.331	7.80925	49.096	-129.922	-7.82453	31.5521	-108.889	-16.4834	15.7738	-91.4568	-28.1455	3.67501	-148.042	21.3659	-36.4332	-147.022	11.7293	-66.6315	-151.504	-8.23869	-87.2936	-173.836	25.8113	-51.747	-176.976	13.1701	-78.1727	-178.96	-13.6133	-104.434	-198.722	26.186	-44.9912	-202.071	17.0695	-75.6613	-197.984	-0.714688	-96.5471	-232.788	26.1772	-28.4647	-240.321	28.2502	-48.3813	-246.886	38.7043	-64.3426	-207.488	40.063	10.1252	-212.125	43.6783	46.0484	-173.523	37.3995	31.2332	
23	0.191667	-152.789	7.68104	46.4424	-134.109	-10.7097	29.1231	-116.503	-20.4368	15.0292	-99.707	-31.261	-3.4363	-146.195	22.8146	-39.2434	-148.677	9.53212	-70.0438	-151.973	-11.6888	-84.5662	-175.382	28.0394	-54.2543	-169.826	10.7331	-79.4671	-175.014	-19.9331	-98.3449	-202.307	28.9899	-48.0832	-198.108	14.5489	-77.3148	-197.474	-6.15086	-94.9737	-228.03	28.7453	-29.2822	-236.29	30.8978	-48.4827	-242.259	39.3161	-66.0322	-207.048	39.323	13.5959	-213.799	42.125	44.1306	-175.08	37.0974	29.6119	
